<svg width="15" height="14" viewBox="0 0 15 14" fill="none" xmlns="http://www.w3.org/2000/svg">
<path d="M8.80737 5.03302C8.9691 5.0178 9.11695 5.12991 9.15991 5.28009L9.17944 5.3504L9.17358 5.35333C9.17391 5.35492 9.17422 5.35655 9.17456 5.35822C9.18279 5.39901 9.19416 5.45696 9.20581 5.52814C9.2291 5.6704 9.25432 5.86813 9.26147 6.10138C9.27573 6.56731 9.21878 7.18041 8.92944 7.78302L8.92847 7.78497C8.60049 8.44002 7.96331 9.17722 7.72534 9.43732C7.7332 9.56906 7.74377 9.677 7.75269 9.75372C7.75754 9.7955 7.76128 9.82847 7.7644 9.8504C7.76597 9.86137 7.76747 9.87033 7.76831 9.87579C7.76848 9.87686 7.76818 9.87788 7.76831 9.87872C7.81351 10.0683 7.67364 10.2471 7.49194 10.2703L7.47925 10.2723V10.2713H7.4314C7.28376 10.2713 7.12629 10.1696 7.09546 10.0067C7.09207 9.99681 7.08822 9.98791 7.08667 9.98126C7.08362 9.96818 7.08079 9.95177 7.07788 9.93439C7.07205 9.89952 7.06638 9.85349 7.0603 9.79865C7.04848 9.69185 7.03626 9.54793 7.02808 9.37775C7.02163 9.36208 7.01149 9.33963 6.99585 9.30841C6.98096 9.27869 6.96384 9.24286 6.948 9.20587C6.69627 8.96089 6.31317 8.54789 6.01245 8.04279C5.70697 7.52952 5.47927 6.90941 5.57202 6.26935C5.57805 6.13252 5.66657 6.0304 5.77905 5.99103L5.83081 5.97736C6.37632 5.84293 6.78923 5.99362 7.05347 6.16193C7.39793 5.66867 7.80499 5.38719 8.14038 5.22931C8.31702 5.14619 8.47349 5.09656 8.5896 5.06818C8.68657 5.04449 8.75979 5.03642 8.7937 5.034V5.03302C8.79628 5.03266 8.79895 5.03331 8.80151 5.03302C8.80373 5.03293 8.8057 5.03204 8.80737 5.03204V5.03302ZM8.53784 5.80743C8.37825 5.8669 8.17759 5.96979 7.97241 6.1424C8.08538 6.07973 8.22662 6.0915 8.33765 6.17072C8.49917 6.28622 8.5175 6.49441 8.40894 6.6463V6.64728C8.02947 7.1661 7.84509 7.7599 7.75562 8.29474C7.96097 8.02888 8.16607 7.7287 8.30249 7.45587C8.60819 6.84397 8.59902 6.17871 8.53784 5.80743ZM7.86987 6.23224C7.70739 6.38821 7.54672 6.59178 7.40796 6.85822C7.31363 7.05542 7.2613 7.26035 7.24097 7.46466C7.3751 7.05114 7.57208 6.6294 7.86206 6.242C7.8645 6.23859 7.86735 6.23552 7.86987 6.23224ZM6.22241 6.61993C6.22575 6.72115 6.23676 6.82267 6.25854 6.92365C6.28042 6.86251 6.32071 6.80605 6.38159 6.76251L6.39038 6.75665C6.46074 6.71652 6.54334 6.70004 6.6228 6.70978C6.52129 6.65879 6.38855 6.61993 6.22241 6.61993Z" fill="#213F7D" stroke="#213F7D" stroke-width="0.2"/>
<path d="M4.2002 4.10461C4.38345 4.10475 4.54004 4.26118 4.54004 4.44446V10.5245C4.53986 10.7077 4.38334 10.8642 4.2002 10.8644C4.01695 10.8644 3.86053 10.7078 3.86035 10.5245V4.44446C3.86035 4.2611 4.01684 4.10461 4.2002 4.10461Z" fill="#213F7D" stroke="#213F7D" stroke-width="0.2"/>
<path d="M2.6001 4.10461C2.78335 4.10475 2.93994 4.26118 2.93994 4.44446V10.5245C2.93976 10.7077 2.78325 10.8642 2.6001 10.8644C2.41685 10.8644 2.26043 10.7078 2.26025 10.5245V4.44446C2.26025 4.2611 2.41674 4.10461 2.6001 4.10461Z" fill="#213F7D" stroke="#213F7D" stroke-width="0.2"/>
<path d="M10.6001 4.10461C10.7833 4.10475 10.9399 4.26118 10.9399 4.44446V10.5245C10.9398 10.7077 10.7832 10.8642 10.6001 10.8644C10.4168 10.8644 10.2604 10.7078 10.2603 10.5245V4.44446C10.2603 4.2611 10.4167 4.10461 10.6001 4.10461Z" fill="#213F7D" stroke="#213F7D" stroke-width="0.2"/>
<path d="M12.2002 4.10461C12.3834 4.10475 12.54 4.26118 12.54 4.44446V10.5245C12.5399 10.7077 12.3833 10.8642 12.2002 10.8644C12.0169 10.8644 11.8605 10.7078 11.8604 10.5245V4.44446C11.8604 4.2611 12.0168 4.10461 12.2002 4.10461Z" fill="#213F7D" stroke="#213F7D" stroke-width="0.2"/>
<path d="M7.23608 0.150208C7.34313 0.0858144 7.48397 0.0793873 7.58667 0.156067L12.9207 3.33282C13.0352 3.38501 13.1159 3.51475 13.116 3.64337V3.65607L13.114 3.65509C13.1004 3.7671 13.0323 3.8715 12.9353 3.93146L12.9822 3.98419H2.03979C1.88438 3.98412 1.74201 3.87388 1.71753 3.72443L1.71851 3.72345C1.67893 3.56609 1.75217 3.43378 1.8728 3.35333L1.87671 3.3504L7.23608 0.151184V0.150208ZM3.26538 3.3045H11.5193L7.39917 0.831848L3.26538 3.3045Z" fill="#213F7D" stroke="#213F7D" stroke-width="0.2"/>
<path d="M12.76 10.9846C12.9434 10.9846 13.0999 11.1411 13.0999 11.3245C13.0997 11.5077 12.9433 11.6643 12.76 11.6643H2.04028C1.85701 11.6643 1.70057 11.5077 1.70044 11.3245C1.70044 11.1411 1.85693 10.9846 2.04028 10.9846H12.76Z" fill="#213F7D" stroke="#213F7D" stroke-width="0.2"/>
<path d="M13.5596 11.7846C13.7429 11.7846 13.9004 11.9411 13.9004 12.1245C13.9003 12.3077 13.7428 12.4643 13.5596 12.4643H1.24023C1.05696 12.4643 0.900524 12.3077 0.900391 12.1245C0.900391 11.9411 1.05688 11.7846 1.24023 11.7846H13.5596Z" fill="#213F7D" stroke="#213F7D" stroke-width="0.2"/>
<path d="M14.3601 12.5846C14.5434 12.5847 14.7 12.7411 14.7 12.9244C14.6998 13.1076 14.5433 13.2642 14.3601 13.2643H0.440186C0.256911 13.2643 0.100476 13.1077 0.100342 12.9244C0.100342 12.7411 0.256832 12.5846 0.440186 12.5846H14.3601Z" fill="#213F7D" stroke="#213F7D" stroke-width="0.2"/>
</svg>
